<?xml version="1.0" encoding="UTF-8" standalone="no"?>
<svg
   xmlns:ooo="http://xml.openoffice.org/svg/export"
   xmlns:dc="http://purl.org/dc/elements/1.1/"
   xmlns:cc="http://creativecommons.org/ns#"
   xmlns:rdf="http://www.w3.org/1999/02/22-rdf-syntax-ns#"
   xmlns:svg="http://www.w3.org/2000/svg"
   xmlns="http://www.w3.org/2000/svg"
   xmlns:sodipodi="http://sodipodi.sourceforge.net/DTD/sodipodi-0.dtd"
   xmlns:inkscape="http://www.inkscape.org/namespaces/inkscape"
   version="1.2"
   width="210mm"
   height="297mm"
   viewBox="0 0 21000 29700"
   preserveAspectRatio="xMidYMid"
   fill-rule="evenodd"
   stroke-width="28.222"
   stroke-linejoin="round"
   xml:space="preserve"
   id="svg84"
   sodipodi:docname="bertrand_logo.svg"
   inkscape:version="0.92.4 (5da689c313, 2019-01-14)"><metadata
   id="metadata88"><rdf:RDF><cc:Work
       rdf:about=""><dc:format>image/svg+xml</dc:format><dc:type
         rdf:resource="http://purl.org/dc/dcmitype/StillImage" /></cc:Work></rdf:RDF></metadata><sodipodi:namedview
   pagecolor="#ffffff"
   bordercolor="#666666"
   borderopacity="1"
   objecttolerance="10"
   gridtolerance="10"
   guidetolerance="10"
   inkscape:pageopacity="0"
   inkscape:pageshadow="2"
   inkscape:window-width="1920"
   inkscape:window-height="1163"
   id="namedview86"
   showgrid="false"
   inkscape:zoom="1.6819304"
   inkscape:cx="270.86147"
   inkscape:cy="828.08883"
   inkscape:window-x="1920"
   inkscape:window-y="0"
   inkscape:window-maximized="1"
   inkscape:current-layer="g76" />
 <defs
   class="ClipPathGroup"
   id="defs8">
  <clipPath
   id="presentation_clip_path"
   clipPathUnits="userSpaceOnUse">
   <rect
   x="0"
   y="0"
   width="21000"
   height="29700"
   id="rect2" />
  </clipPath>
  <clipPath
   id="presentation_clip_path_shrink"
   clipPathUnits="userSpaceOnUse">
   <rect
   x="21"
   y="29"
   width="20958"
   height="29641"
   id="rect5" />
  </clipPath>
 
    
   
     
    
       
      </defs>
 <defs
   class="TextShapeIndex"
   id="defs12">
  <g
   ooo:slide="id1"
   ooo:id-list="id3"
   id="g10" />
 </defs>
 <defs
   class="EmbeddedBulletChars"
   id="defs44">
  <g
   id="bullet-char-template-57356"
   transform="scale(0.00048828125,-0.00048828125)">
   <path
   d="M 580,1141 L 1163,571 580,0 -4,571 580,1141 Z"
   id="path14" />
  </g>
  <g
   id="bullet-char-template-57354"
   transform="scale(0.00048828125,-0.00048828125)">
   <path
   d="M 8,1128 L 1137,1128 1137,0 8,0 8,1128 Z"
   id="path17" />
  </g>
  <g
   id="bullet-char-template-10146"
   transform="scale(0.00048828125,-0.00048828125)">
   <path
   d="M 174,0 L 602,739 174,1481 1456,739 174,0 Z M 1358,739 L 309,1346 659,739 1358,739 Z"
   id="path20" />
  </g>
  <g
   id="bullet-char-template-10132"
   transform="scale(0.00048828125,-0.00048828125)">
   <path
   d="M 2015,739 L 1276,0 717,0 1260,543 174,543 174,936 1260,936 717,1481 1274,1481 2015,739 Z"
   id="path23" />
  </g>
  <g
   id="bullet-char-template-10007"
   transform="scale(0.00048828125,-0.00048828125)">
   <path
   d="M 0,-2 C -7,14 -16,27 -25,37 L 356,567 C 262,823 215,952 215,954 215,979 228,992 255,992 264,992 276,990 289,987 310,991 331,999 354,1012 L 381,999 492,748 772,1049 836,1024 860,1049 C 881,1039 901,1025 922,1006 886,937 835,863 770,784 769,783 710,716 594,584 L 774,223 C 774,196 753,168 711,139 L 727,119 C 717,90 699,76 672,76 641,76 570,178 457,381 L 164,-76 C 142,-110 111,-127 72,-127 30,-127 9,-110 8,-76 1,-67 -2,-52 -2,-32 -2,-23 -1,-13 0,-2 Z"
   id="path26" />
  </g>
  <g
   id="bullet-char-template-10004"
   transform="scale(0.00048828125,-0.00048828125)">
   <path
   d="M 285,-33 C 182,-33 111,30 74,156 52,228 41,333 41,471 41,549 55,616 82,672 116,743 169,778 240,778 293,778 328,747 346,684 L 369,508 C 377,444 397,411 428,410 L 1163,1116 C 1174,1127 1196,1133 1229,1133 1271,1133 1292,1118 1292,1087 L 1292,965 C 1292,929 1282,901 1262,881 L 442,47 C 390,-6 338,-33 285,-33 Z"
   id="path29" />
  </g>
  <g
   id="bullet-char-template-9679"
   transform="scale(0.00048828125,-0.00048828125)">
   <path
   d="M 813,0 C 632,0 489,54 383,161 276,268 223,411 223,592 223,773 276,916 383,1023 489,1130 632,1184 813,1184 992,1184 1136,1130 1245,1023 1353,916 1407,772 1407,592 1407,412 1353,268 1245,161 1136,54 992,0 813,0 Z"
   id="path32" />
  </g>
  <g
   id="bullet-char-template-8226"
   transform="scale(0.00048828125,-0.00048828125)">
   <path
   d="M 346,457 C 273,457 209,483 155,535 101,586 74,649 74,723 74,796 101,859 155,911 209,963 273,989 346,989 419,989 480,963 531,910 582,859 608,796 608,723 608,648 583,586 532,535 482,483 420,457 346,457 Z"
   id="path35" />
  </g>
  <g
   id="bullet-char-template-8211"
   transform="scale(0.00048828125,-0.00048828125)">
   <path
   d="M -4,459 L 1135,459 1135,606 -4,606 -4,459 Z"
   id="path38" />
  </g>
  <g
   id="bullet-char-template-61548"
   transform="scale(0.00048828125,-0.00048828125)">
   <path
   d="M 173,740 C 173,903 231,1043 346,1159 462,1274 601,1332 765,1332 928,1332 1067,1274 1183,1159 1299,1043 1357,903 1357,740 1357,577 1299,437 1183,322 1067,206 928,148 765,148 601,148 462,206 346,322 231,437 173,577 173,740 Z"
   id="path41" />
  </g>
 </defs>
 <g
   id="g49">
  <g
   id="id2"
   class="Master_Slide">
   <g
   id="bg-id2"
   class="Background" />
   <g
   id="bo-id2"
   class="BackgroundObjects" />
  </g>
 </g>
 <g
   class="SlideGroup"
   id="g82">
  <g
   id="g80">
   <g
   class="Page"
   id="g76">
      <g
   id="id3"
   transform="matrix(0.7905941,0,0,0.96881853,1999.6205,129.34131)"
   inkscape:export-xdpi="284.9028"
   inkscape:export-ydpi="284.9028">
        <rect
   style="fill:none;stroke:none"
   id="rect51"
   height="4944"
   width="4943"
   y="4199"
   x="4599"
   class="BoundingBox" />
        <path
   style="fill:#808080;stroke:none"
   inkscape:connector-curvature="0"
   id="path53"
   d="m 7447,7182 c -4,52 -8,105 -15,157 -13,40 -25,80 -39,121 -19,31 -39,62 -61,95 -25,27 -50,54 -78,83 -42,38 -84,76 -126,116 -41,30 -83,60 -125,92 -32,33 -64,66 -96,101 -12,48 -25,97 -38,147 5,45 9,90 13,136 10,43 20,86 31,129 12,41 25,82 37,124 11,39 23,79 35,121 11,18 22,37 33,56 13,23 26,47 39,71 10,20 20,41 30,61 4,9 8,18 14,26 22,-9 44,-19 69,-31 28,-5 56,-9 84,-16 28,-2 55,-4 85,-6 22,0 44,0 69,0 27,1 53,2 80,4 33,3 67,6 103,10 29,2 58,5 87,8 13,1 26,2 38,5 -17,-16 -33,-33 -51,-49 -13,-21 -26,-41 -41,-62 -11,-23 -22,-45 -33,-67 -10,-21 -20,-41 -29,-64 -35,-61 -70,-122 -105,-183 -14,-45 -28,-89 -42,-136 2,-33 3,-66 6,-101 12,-25 25,-50 40,-77 21,-22 42,-43 63,-66 49,-51 97,-101 148,-154 45,-48 91,-97 140,-145 36,-50 73,-99 112,-151 20,-55 41,-110 62,-167 0,-21 0,-42 0,-66 0,-24 0,-48 0,-72 0,-26 0,-51 0,-78 0,-26 0,-52 0,-80 -10,-5 -19,-11 -29,-19 -7,-6 -14,-12 -24,-18 -5,-3 -11,-7 -18,-12 -1,-1 -3,-2 -5,-4 -46,8 -92,16 -138,25 -41,12 -81,24 -124,35 -36,15 -73,29 -109,45 -30,18 -61,37 -92,56 z m 962,-214 c -66,4 -133,9 -200,14 -33,2 -67,4 -103,8 -13,1 -25,2 -39,3 -1,0 -3,0 -4,1 -11,0 -23,0 -36,0 -14,0 -28,0 -42,0 -14,0 -28,0 -42,0 -11,0 -22,0 -33,0 0,1 0,2 0,4 0,3 0,6 0,9 0,3 0,6 0,9 0,1 0,2 0,5 1,1 2,2 5,4 6,4 11,8 18,12 7,6 14,12 24,18 10,6 19,12 29,19 25,23 50,45 77,69 15,29 30,58 46,89 4,38 8,77 12,116 -8,52 -16,105 -28,159 -22,70 -44,140 -69,212 -13,33 -25,66 -41,100 -16,33 -33,66 -51,101 -14,33 -28,66 -45,100 -5,34 -11,68 -18,102 7,68 14,137 23,207 23,60 47,121 72,182 40,56 81,112 121,170 57,56 114,112 174,169 75,61 150,121 227,183 15,5 31,10 46,16 21,12 42,24 65,37 19,12 37,23 58,37 8,6 16,12 25,18 32,-21 64,-41 97,-64 39,-11 78,-23 117,-34 42,-6 84,-12 125,-20 41,-5 81,-10 123,-16 8,0 17,0 26,0 9,1 17,2 25,3 6,1 12,3 17,7 2,5 3,10 7,16 -51,-25 -103,-51 -154,-76 -39,-22 -78,-45 -120,-69 -32,-20 -64,-41 -99,-63 -29,-19 -59,-39 -88,-60 -56,-46 -111,-91 -170,-139 -43,-44 -86,-89 -131,-135 -26,-49 -52,-99 -80,-150 -6,-60 -11,-120 -20,-181 18,-75 36,-151 54,-227 27,-72 53,-143 83,-215 21,-56 41,-111 65,-168 14,-44 28,-87 45,-133 8,-37 16,-74 27,-111 3,-32 6,-64 10,-98 -3,-25 -5,-50 -8,-75 -7,-22 -14,-43 -21,-65 -11,-19 -22,-37 -35,-56 -17,-14 -33,-29 -50,-44 -10,0 -19,0 -29,0 -10,0 -20,0 -29,0 -10,0 -20,0 -30,0 -8,0 -16,0 -28,0 z m 924,-1342 c -18,-6 -37,-13 -57,-20 -17,-6 -34,-12 -53,-17 -16,-4 -31,-8 -48,-13 -11,-1 -22,-2 -35,-4 -58,-17 -116,-35 -176,-52 -55,-28 -109,-55 -166,-82 -42,-41 -84,-81 -128,-122 -22,-57 -45,-115 -67,-173 0,-51 0,-103 0,-155 0,-26 0,-53 0,-80 0,-9 0,-19 0,-29 0,-1 0,-2 0,-4 -26,-62 -53,-124 -79,-187 -55,-39 -109,-78 -163,-118 -78,-18 -156,-35 -236,-54 -97,3 -195,6 -292,11 -67,10 -134,19 -202,30 -33,5 -67,10 -103,15 -12,2 -25,4 -39,6 -1,0 -3,0 -4,1 -47,3 -95,6 -143,9 -41,-3 -81,-6 -124,-10 -45,-10 -90,-21 -134,-32 -57,-20 -114,-41 -171,-61 -78,-31 -156,-62 -236,-93 -53,-17 -105,-33 -161,-51 -59,1 -117,3 -176,7 -53,21 -105,41 -161,62 -39,39 -78,78 -117,117 -39,63 -78,126 -120,189 -32,43 -64,85 -97,130 -34,29 -67,58 -101,89 -41,22 -83,43 -125,66 -57,21 -114,41 -174,63 -58,20 -117,40 -178,61 -31,10 -61,21 -92,32 -11,4 -22,7 -33,11 -2,0 -3,0 -5,2 -57,35 -114,70 -172,106 -34,40 -67,80 -102,121 -7,47 -14,94 -24,142 23,55 45,111 69,168 18,47 36,93 57,142 1,55 2,110 4,166 -15,55 -31,110 -47,167 -31,46 -62,93 -92,141 -30,48 -59,95 -89,144 2,45 5,91 11,138 32,38 64,77 98,118 58,28 115,56 172,84 15,1 30,2 47,4 25,3 50,6 78,9 29,3 59,6 91,9 30,1 61,2 91,5 55,4 109,7 165,11 65,14 131,28 196,42 73,27 145,54 219,83 76,43 153,87 229,133 20,18 39,36 59,56 21,19 42,39 65,60 27,24 53,48 81,75 34,34 67,68 103,103 52,23 103,46 158,70 68,5 136,10 207,17 70,-12 139,-23 209,-35 51,-26 103,-52 157,-79 11,-7 22,-15 35,-25 15,-11 31,-21 47,-32 17,-13 34,-25 53,-38 20,-12 39,-25 59,-39 30,-18 61,-36 92,-56 36,-14 72,-29 108,-44 41,-12 81,-24 124,-35 46,-8 92,-16 138,-26 0,-1 0,-2 0,-5 0,-2 0,-5 0,-8 0,-3 0,-6 0,-10 0,-1 0,-2 0,-4 11,0 22,0 33,0 14,0 28,0 42,0 14,0 28,0 42,0 11,0 22,0 36,0 66,-5 131,-10 199,-15 34,-2 67,-4 103,-8 13,-1 25,-2 39,-3 2,0 3,0 6,0 8,0 17,0 28,0 9,0 19,0 29,0 10,0 19,0 29,0 10,0 20,0 29,0 7,0 14,0 23,0 4,0 8,0 15,0 4,0 8,0 15,0 7,0 14,0 24,0 60,-24 120,-49 180,-75 43,-31 86,-62 132,-93 26,-35 53,-70 82,-105 10,-34 20,-68 29,-104 7,-63 14,-126 23,-189 33,-44 66,-89 101,-136 49,-33 98,-66 146,-101 52,-27 104,-54 155,-83 42,-40 84,-80 128,-121 13,-48 25,-96 39,-144 -18,-46 -36,-91 -56,-139 -50,-35 -100,-70 -151,-106 z M 7230,7074 c -153,6 -306,12 -459,20 -145,-23 -290,-45 -436,-68 -131,-48 -262,-95 -394,-144 -110,-69 -220,-138 -330,-207 -81,-88 -162,-175 -245,-263 -45,-101 -89,-202 -137,-304 -4,-110 -8,-220 -15,-329 33,-102 67,-204 102,-308 68,-90 136,-180 206,-273 98,-74 197,-149 299,-226 127,-55 253,-110 380,-166 151,-31 301,-62 451,-94 152,-3 304,-6 456,-10 143,23 286,46 431,69 130,47 259,94 389,142 108,68 217,136 327,205 82,85 164,171 248,258 50,101 100,202 152,303 2,109 5,219 11,329 -35,102 -70,204 -108,306 -69,91 -139,181 -211,273 -100,75 -201,150 -302,226 -126,56 -251,111 -378,166 -144,31 -289,62 -437,95 z" />
        <path
   style="fill:none;stroke:#808080"
   inkscape:connector-curvature="0"
   id="path55"
   d="m 7447,7182 c -4,52 -8,105 -15,157 -13,40 -25,80 -39,121 -19,31 -39,62 -61,95 -25,27 -50,54 -78,83 -42,38 -84,76 -126,116 -41,30 -83,60 -125,92 -32,33 -64,66 -96,101 -12,48 -25,97 -38,147 5,45 9,90 13,136 10,43 20,86 31,129 12,41 25,82 37,124 11,39 23,79 35,121 11,18 22,37 33,56 13,23 26,47 39,71 10,20 20,41 30,61 4,9 8,18 14,26 22,-9 44,-19 69,-31 28,-5 56,-9 84,-16 28,-2 55,-4 85,-6 h 69 c 27,1 53,2 80,4 33,3 67,6 103,10 29,2 58,5 87,8 13,1 26,2 38,5 -17,-16 -33,-33 -51,-49 -13,-21 -26,-41 -41,-62 -11,-23 -22,-45 -33,-67 -10,-21 -20,-41 -29,-64 l -105,-183 c -14,-45 -28,-89 -42,-136 2,-33 3,-66 6,-101 12,-25 25,-50 40,-77 21,-22 42,-43 63,-66 49,-51 97,-101 148,-154 45,-48 91,-97 140,-145 36,-50 73,-99 112,-151 20,-55 41,-110 62,-167 v -66 -72 -78 -80 c -10,-5 -19,-11 -29,-19 -7,-6 -14,-12 -24,-18 -5,-3 -11,-7 -18,-12 -1,-1 -3,-2 -5,-4 -46,8 -92,16 -138,25 -41,12 -81,24 -124,35 -36,15 -73,29 -109,45 -30,18 -61,37 -92,56 z" />
        <path
   style="fill:none;stroke:#808080"
   inkscape:connector-curvature="0"
   id="path57"
   d="m 8409,6968 c -66,4 -133,9 -200,14 -33,2 -67,4 -103,8 -13,1 -25,2 -39,3 -1,0 -3,0 -4,1 h -36 -42 -42 -33 v 4 9 9 5 c 1,1 2,2 5,4 6,4 11,8 18,12 7,6 14,12 24,18 10,6 19,12 29,19 25,23 50,45 77,69 15,29 30,58 46,89 4,38 8,77 12,116 -8,52 -16,105 -28,159 -22,70 -44,140 -69,212 -13,33 -25,66 -41,100 -16,33 -33,66 -51,101 -14,33 -28,66 -45,100 -5,34 -11,68 -18,102 7,68 14,137 23,207 23,60 47,121 72,182 40,56 81,112 121,170 57,56 114,112 174,169 75,61 150,121 227,183 15,5 31,10 46,16 21,12 42,24 65,37 19,12 37,23 58,37 8,6 16,12 25,18 32,-21 64,-41 97,-64 39,-11 78,-23 117,-34 42,-6 84,-12 125,-20 41,-5 81,-10 123,-16 h 26 c 9,1 17,2 25,3 6,1 12,3 17,7 2,5 3,10 7,16 -51,-25 -103,-51 -154,-76 -39,-22 -78,-45 -120,-69 -32,-20 -64,-41 -99,-63 -29,-19 -59,-39 -88,-60 -56,-46 -111,-91 -170,-139 -43,-44 -86,-89 -131,-135 -26,-49 -52,-99 -80,-150 -6,-60 -11,-120 -20,-181 18,-75 36,-151 54,-227 27,-72 53,-143 83,-215 21,-56 41,-111 65,-168 14,-44 28,-87 45,-133 8,-37 16,-74 27,-111 3,-32 6,-64 10,-98 -3,-25 -5,-50 -8,-75 -7,-22 -14,-43 -21,-65 -11,-19 -22,-37 -35,-56 -17,-14 -33,-29 -50,-44 h -29 -29 -30 z" />
        <path
   style="fill:none;stroke:#808080"
   inkscape:connector-curvature="0"
   id="path59"
   d="m 9333,5626 c -18,-6 -37,-13 -57,-20 -17,-6 -34,-12 -53,-17 -16,-4 -31,-8 -48,-13 -11,-1 -22,-2 -35,-4 -58,-17 -116,-35 -176,-52 -55,-28 -109,-55 -166,-82 -42,-41 -84,-81 -128,-122 -22,-57 -45,-115 -67,-173 v -155 -80 -29 -4 c -26,-62 -53,-124 -79,-187 -55,-39 -109,-78 -163,-118 -78,-18 -156,-35 -236,-54 -97,3 -195,6 -292,11 -67,10 -134,19 -202,30 -33,5 -67,10 -103,15 -12,2 -25,4 -39,6 -1,0 -3,0 -4,1 -47,3 -95,6 -143,9 -41,-3 -81,-6 -124,-10 -45,-10 -90,-21 -134,-32 -57,-20 -114,-41 -171,-61 -78,-31 -156,-62 -236,-93 -53,-17 -105,-33 -161,-51 -59,1 -117,3 -176,7 -53,21 -105,41 -161,62 l -117,117 c -39,63 -78,126 -120,189 -32,43 -64,85 -97,130 -34,29 -67,58 -101,89 -41,22 -83,43 -125,66 -57,21 -114,41 -174,63 -58,20 -117,40 -178,61 -31,10 -61,21 -92,32 -11,4 -22,7 -33,11 -2,0 -3,0 -5,2 -57,35 -114,70 -172,106 -34,40 -67,80 -102,121 -7,47 -14,94 -24,142 23,55 45,111 69,168 18,47 36,93 57,142 1,55 2,110 4,166 -15,55 -31,110 -47,167 -31,46 -62,93 -92,141 -30,48 -59,95 -89,144 2,45 5,91 11,138 32,38 64,77 98,118 58,28 115,56 172,84 15,1 30,2 47,4 25,3 50,6 78,9 29,3 59,6 91,9 30,1 61,2 91,5 55,4 109,7 165,11 65,14 131,28 196,42 73,27 145,54 219,83 76,43 153,87 229,133 20,18 39,36 59,56 21,19 42,39 65,60 27,24 53,48 81,75 34,34 67,68 103,103 52,23 103,46 158,70 68,5 136,10 207,17 70,-12 139,-23 209,-35 51,-26 103,-52 157,-79 11,-7 22,-15 35,-25 15,-11 31,-21 47,-32 17,-13 34,-25 53,-38 20,-12 39,-25 59,-39 30,-18 61,-36 92,-56 36,-14 72,-29 108,-44 41,-12 81,-24 124,-35 46,-8 92,-16 138,-26 v -5 -8 -10 -4 h 33 42 42 36 c 66,-5 131,-10 199,-15 34,-2 67,-4 103,-8 13,-1 25,-2 39,-3 h 6 28 29 29 29 23 15 15 24 c 60,-24 120,-49 180,-75 43,-31 86,-62 132,-93 26,-35 53,-70 82,-105 10,-34 20,-68 29,-104 7,-63 14,-126 23,-189 33,-44 66,-89 101,-136 49,-33 98,-66 146,-101 52,-27 104,-54 155,-83 42,-40 84,-80 128,-121 13,-48 25,-96 39,-144 -18,-46 -36,-91 -56,-139 -50,-35 -100,-70 -151,-106 z" />
        <path
   style="fill:none;stroke:#808080"
   inkscape:connector-curvature="0"
   id="path61"
   d="m 7230,7074 c -153,6 -306,12 -459,20 -145,-23 -290,-45 -436,-68 -131,-48 -262,-95 -394,-144 l -330,-207 c -81,-88 -162,-175 -245,-263 -45,-101 -89,-202 -137,-304 -4,-110 -8,-220 -15,-329 33,-102 67,-204 102,-308 68,-90 136,-180 206,-273 98,-74 197,-149 299,-226 127,-55 253,-110 380,-166 151,-31 301,-62 451,-94 152,-3 304,-6 456,-10 143,23 286,46 431,69 130,47 259,94 389,142 108,68 217,136 327,205 82,85 164,171 248,258 50,101 100,202 152,303 2,109 5,219 11,329 -35,102 -70,204 -108,306 -69,91 -139,181 -211,273 -100,75 -201,150 -302,226 -126,56 -251,111 -378,166 -144,31 -289,62 -437,95 z" />
        <path
   style="fill:#c9211e;stroke:none"
   inkscape:connector-curvature="0"
   id="path63"
   d="m 7306,7041 c -4,52 -8,105 -15,157 -13,40 -25,80 -39,121 -19,31 -39,62 -61,95 -25,27 -50,54 -78,83 -42,38 -84,76 -126,116 -41,30 -83,60 -125,92 -32,33 -64,66 -96,101 -12,48 -25,97 -38,147 5,45 9,90 13,136 10,43 20,86 31,129 12,41 25,82 37,124 11,39 23,79 35,121 11,18 22,37 33,56 13,23 26,47 39,71 10,20 20,41 30,61 4,9 8,18 14,26 22,-9 44,-19 69,-31 28,-5 56,-9 84,-16 28,-2 55,-4 85,-6 22,0 44,0 69,0 27,1 53,2 80,4 33,3 67,6 103,10 29,2 58,5 87,8 13,1 26,2 38,5 -17,-16 -33,-33 -51,-49 -13,-21 -26,-41 -41,-62 -11,-23 -22,-45 -33,-67 -10,-21 -20,-41 -29,-64 -35,-61 -70,-122 -105,-183 -14,-45 -28,-89 -42,-136 2,-33 3,-66 6,-101 12,-25 25,-50 40,-77 21,-22 42,-43 63,-66 49,-51 97,-101 148,-154 45,-48 91,-97 140,-145 36,-50 73,-99 112,-151 20,-55 41,-110 62,-167 0,-21 0,-42 0,-66 0,-24 0,-48 0,-72 0,-26 0,-51 0,-78 0,-26 0,-52 0,-80 -10,-5 -19,-11 -29,-19 -7,-6 -14,-12 -24,-18 -5,-3 -11,-7 -18,-12 -1,-1 -3,-2 -5,-4 -46,8 -92,16 -138,25 -41,12 -81,24 -124,35 -36,15 -73,29 -109,45 -30,18 -61,37 -92,56 z m 962,-214 c -66,4 -133,9 -200,14 -33,2 -67,4 -103,8 -13,1 -25,2 -39,3 -1,0 -3,0 -4,1 -11,0 -23,0 -36,0 -14,0 -28,0 -42,0 -14,0 -28,0 -42,0 -11,0 -22,0 -33,0 0,1 0,2 0,4 0,3 0,6 0,9 0,3 0,6 0,9 0,1 0,2 0,5 1,1 2,2 5,4 6,4 11,8 18,12 7,6 14,12 24,18 10,6 19,12 29,19 25,23 50,45 77,69 15,29 30,58 46,89 4,38 8,77 12,116 -8,52 -16,105 -28,159 -22,70 -44,140 -69,212 -13,33 -25,66 -41,100 -16,33 -33,66 -51,101 -14,33 -28,66 -45,100 -5,34 -11,68 -18,102 7,68 14,137 23,207 23,60 47,121 72,182 40,56 81,112 121,170 57,56 114,112 174,169 75,61 150,121 227,183 15,5 31,10 46,16 21,12 42,24 65,37 19,12 37,23 58,37 8,6 16,12 25,18 32,-21 64,-41 97,-64 39,-11 78,-23 117,-34 42,-6 84,-12 125,-20 41,-5 81,-10 123,-16 8,0 17,0 26,0 9,1 17,2 25,3 6,1 12,3 17,7 2,5 3,10 7,16 -51,-25 -103,-51 -154,-76 -39,-22 -78,-45 -120,-69 -32,-20 -64,-41 -99,-63 -29,-19 -59,-39 -88,-60 -56,-46 -111,-91 -170,-139 -43,-44 -86,-89 -131,-135 -26,-49 -52,-99 -80,-150 -6,-60 -11,-120 -20,-181 18,-75 36,-151 54,-227 27,-72 53,-143 83,-215 21,-56 41,-111 65,-168 14,-44 28,-87 45,-133 8,-37 16,-74 27,-111 3,-32 6,-64 10,-98 -3,-25 -5,-50 -8,-75 -7,-22 -14,-43 -21,-65 -11,-19 -22,-37 -35,-56 -17,-14 -33,-29 -50,-44 -10,0 -19,0 -29,0 -10,0 -20,0 -29,0 -10,0 -20,0 -30,0 -8,0 -16,0 -28,0 z m 924,-1342 c -18,-6 -37,-13 -57,-20 -17,-6 -34,-12 -53,-17 -16,-4 -31,-8 -48,-13 -11,-1 -22,-2 -35,-4 -58,-17 -116,-35 -176,-52 -55,-28 -109,-55 -166,-82 -42,-41 -84,-81 -128,-122 -22,-57 -45,-115 -67,-173 0,-51 0,-103 0,-155 0,-26 0,-53 0,-80 0,-9 0,-19 0,-29 0,-1 0,-2 0,-4 -26,-62 -53,-124 -79,-187 -55,-39 -109,-78 -163,-118 -78,-18 -156,-35 -236,-54 -97,3 -195,6 -292,11 -67,10 -134,19 -202,30 -33,5 -67,10 -103,15 -12,2 -25,4 -39,6 -1,0 -3,0 -4,1 -47,3 -95,6 -143,9 -41,-3 -81,-6 -124,-10 -45,-10 -90,-21 -134,-32 -57,-20 -114,-41 -171,-61 -78,-31 -156,-62 -236,-93 -53,-17 -105,-33 -161,-51 -59,1 -117,3 -176,7 -53,21 -105,41 -161,62 -39,39 -78,78 -117,117 -39,63 -78,126 -120,189 -32,43 -64,85 -97,130 -34,29 -67,58 -101,89 -41,22 -83,43 -125,66 -57,21 -114,41 -174,63 -58,20 -117,40 -178,61 -31,10 -61,21 -92,32 -11,4 -22,7 -33,11 -2,0 -3,0 -5,2 -57,35 -114,70 -172,106 -34,40 -67,80 -102,121 -7,47 -14,94 -24,142 23,55 45,111 69,168 18,47 36,93 57,142 1,55 2,110 4,166 -15,55 -31,110 -47,167 -31,46 -62,93 -92,141 -30,48 -59,95 -89,144 2,45 5,91 11,138 32,38 64,77 98,118 58,28 115,56 172,84 15,1 30,2 47,4 25,3 50,6 78,9 29,3 59,6 91,9 30,1 61,2 91,5 55,4 109,7 165,11 65,14 131,28 196,42 73,27 145,54 219,83 76,43 153,87 229,133 20,18 39,36 59,56 21,19 42,39 65,60 27,24 53,48 81,75 34,34 67,68 103,103 52,23 103,46 158,70 68,5 136,10 207,17 70,-12 139,-23 209,-35 51,-26 103,-52 157,-79 11,-7 22,-15 35,-25 15,-11 31,-21 47,-32 17,-13 34,-25 53,-38 20,-12 39,-25 59,-39 30,-18 61,-36 92,-56 36,-14 72,-29 108,-44 41,-12 81,-24 124,-35 46,-8 92,-16 138,-26 0,-1 0,-2 0,-5 0,-2 0,-5 0,-8 0,-3 0,-6 0,-10 0,-1 0,-2 0,-4 11,0 22,0 33,0 14,0 28,0 42,0 14,0 28,0 42,0 11,0 22,0 36,0 66,-5 131,-10 199,-15 34,-2 67,-4 103,-8 13,-1 25,-2 39,-3 2,0 3,0 6,0 8,0 17,0 28,0 9,0 19,0 29,0 10,0 19,0 29,0 10,0 20,0 29,0 7,0 14,0 23,0 4,0 8,0 15,0 4,0 8,0 15,0 7,0 14,0 24,0 60,-24 120,-49 180,-75 43,-31 86,-62 132,-93 26,-35 53,-70 82,-105 10,-34 20,-68 29,-104 7,-63 14,-126 23,-189 33,-44 66,-89 101,-136 49,-33 98,-66 146,-101 52,-27 104,-54 155,-83 42,-40 84,-80 128,-121 13,-48 25,-96 39,-144 -18,-46 -36,-91 -56,-139 -50,-35 -100,-70 -151,-106 z M 7089,6933 c -153,6 -306,12 -459,20 -145,-23 -290,-45 -436,-68 -131,-48 -262,-95 -394,-144 -110,-69 -220,-138 -330,-207 -81,-88 -162,-175 -245,-263 -45,-101 -89,-202 -137,-304 -4,-110 -8,-220 -15,-329 33,-102 67,-204 102,-308 68,-90 136,-180 206,-273 98,-74 197,-149 299,-226 127,-55 253,-110 380,-166 151,-31 301,-62 451,-94 152,-3 304,-6 456,-10 143,23 286,46 431,69 130,47 259,94 389,142 108,68 217,136 327,205 82,85 164,171 248,258 50,101 100,202 152,303 2,109 5,219 11,329 -35,102 -70,204 -108,306 -69,91 -139,181 -211,273 -100,75 -201,150 -302,226 -126,56 -251,111 -378,166 -144,31 -289,62 -437,95 z" />
        <path
   style="fill:#ffa81e;fill-opacity:1;stroke:#ffec38;stroke-opacity:1"
   inkscape:connector-curvature="0"
   id="path65"
   d="m 7306,7041 c -4,52 -8,105 -15,157 -13,40 -25,80 -39,121 -19,31 -39,62 -61,95 -25,27 -50,54 -78,83 -42,38 -84,76 -126,116 -41,30 -83,60 -125,92 -32,33 -64,66 -96,101 -12,48 -25,97 -38,147 5,45 9,90 13,136 10,43 20,86 31,129 12,41 25,82 37,124 11,39 23,79 35,121 11,18 22,37 33,56 13,23 26,47 39,71 10,20 20,41 30,61 4,9 8,18 14,26 22,-9 44,-19 69,-31 28,-5 56,-9 84,-16 28,-2 55,-4 85,-6 h 69 c 27,1 53,2 80,4 33,3 67,6 103,10 29,2 58,5 87,8 13,1 26,2 38,5 -17,-16 -33,-33 -51,-49 -13,-21 -26,-41 -41,-62 -11,-23 -22,-45 -33,-67 -10,-21 -20,-41 -29,-64 l -105,-183 c -14,-45 -28,-89 -42,-136 2,-33 3,-66 6,-101 12,-25 25,-50 40,-77 21,-22 42,-43 63,-66 49,-51 97,-101 148,-154 45,-48 91,-97 140,-145 36,-50 73,-99 112,-151 20,-55 41,-110 62,-167 v -66 -72 -78 -80 c -10,-5 -19,-11 -29,-19 -7,-6 -14,-12 -24,-18 -5,-3 -11,-7 -18,-12 -1,-1 -3,-2 -5,-4 -46,8 -92,16 -138,25 -41,12 -81,24 -124,35 -36,15 -73,29 -109,45 -30,18 -61,37 -92,56 z" />
        <path
   style="fill:#ffa700;fill-opacity:1;stroke:#ffec38;stroke-opacity:1"
   inkscape:connector-curvature="0"
   id="path67"
   d="m 8268,6827 c -66,4 -133,9 -200,14 -33,2 -67,4 -103,8 -13,1 -25,2 -39,3 -1,0 -3,0 -4,1 h -36 -42 -42 -33 v 4 9 9 5 c 1,1 2,2 5,4 6,4 11,8 18,12 7,6 14,12 24,18 10,6 19,12 29,19 25,23 50,45 77,69 15,29 30,58 46,89 4,38 8,77 12,116 -8,52 -16,105 -28,159 -22,70 -44,140 -69,212 -13,33 -25,66 -41,100 -16,33 -33,66 -51,101 -14,33 -28,66 -45,100 -5,34 -11,68 -18,102 7,68 14,137 23,207 23,60 47,121 72,182 40,56 81,112 121,170 57,56 114,112 174,169 75,61 150,121 227,183 15,5 31,10 46,16 21,12 42,24 65,37 19,12 37,23 58,37 8,6 16,12 25,18 32,-21 64,-41 97,-64 39,-11 78,-23 117,-34 42,-6 84,-12 125,-20 41,-5 81,-10 123,-16 h 26 c 9,1 17,2 25,3 6,1 12,3 17,7 2,5 3,10 7,16 -51,-25 -103,-51 -154,-76 -39,-22 -78,-45 -120,-69 -32,-20 -64,-41 -99,-63 -29,-19 -59,-39 -88,-60 -56,-46 -111,-91 -170,-139 -43,-44 -86,-89 -131,-135 -26,-49 -52,-99 -80,-150 -6,-60 -11,-120 -20,-181 18,-75 36,-151 54,-227 27,-72 53,-143 83,-215 21,-56 41,-111 65,-168 14,-44 28,-87 45,-133 8,-37 16,-74 27,-111 3,-32 6,-64 10,-98 -3,-25 -5,-50 -8,-75 -7,-22 -14,-43 -21,-65 -11,-19 -22,-37 -35,-56 -17,-14 -33,-29 -50,-44 h -29 -29 -30 z" />
        <path
   style="fill:none;stroke:#ff3838"
   inkscape:connector-curvature="0"
   id="path69"
   d="m 9192,5485 c -18,-6 -37,-13 -57,-20 -17,-6 -34,-12 -53,-17 -16,-4 -31,-8 -48,-13 -11,-1 -22,-2 -35,-4 -58,-17 -116,-35 -176,-52 -55,-28 -109,-55 -166,-82 -42,-41 -84,-81 -128,-122 -22,-57 -45,-115 -67,-173 v -155 -80 -29 -4 c -26,-62 -53,-124 -79,-187 -55,-39 -109,-78 -163,-118 -78,-18 -156,-35 -236,-54 -97,3 -195,6 -292,11 -67,10 -134,19 -202,30 -33,5 -67,10 -103,15 -12,2 -25,4 -39,6 -1,0 -3,0 -4,1 -47,3 -95,6 -143,9 -41,-3 -81,-6 -124,-10 -45,-10 -90,-21 -134,-32 -57,-20 -114,-41 -171,-61 -78,-31 -156,-62 -236,-93 -53,-17 -105,-33 -161,-51 -59,1 -117,3 -176,7 -53,21 -105,41 -161,62 l -117,117 c -39,63 -78,126 -120,189 -32,43 -64,85 -97,130 -34,29 -67,58 -101,89 -41,22 -83,43 -125,66 -57,21 -114,41 -174,63 -58,20 -117,40 -178,61 -31,10 -61,21 -92,32 -11,4 -22,7 -33,11 -2,0 -3,0 -5,2 -57,35 -114,70 -172,106 -34,40 -67,80 -102,121 -7,47 -14,94 -24,142 23,55 45,111 69,168 18,47 36,93 57,142 1,55 2,110 4,166 -15,55 -31,110 -47,167 -31,46 -62,93 -92,141 -30,48 -59,95 -89,144 2,45 5,91 11,138 32,38 64,77 98,118 58,28 115,56 172,84 15,1 30,2 47,4 25,3 50,6 78,9 29,3 59,6 91,9 30,1 61,2 91,5 55,4 109,7 165,11 65,14 131,28 196,42 73,27 145,54 219,83 76,43 153,87 229,133 20,18 39,36 59,56 21,19 42,39 65,60 27,24 53,48 81,75 34,34 67,68 103,103 52,23 103,46 158,70 68,5 136,10 207,17 70,-12 139,-23 209,-35 51,-26 103,-52 157,-79 11,-7 22,-15 35,-25 15,-11 31,-21 47,-32 17,-13 34,-25 53,-38 20,-12 39,-25 59,-39 30,-18 61,-36 92,-56 36,-14 72,-29 108,-44 41,-12 81,-24 124,-35 46,-8 92,-16 138,-26 v -5 -8 -10 -4 h 33 42 42 36 c 66,-5 131,-10 199,-15 34,-2 67,-4 103,-8 13,-1 25,-2 39,-3 h 6 28 29 29 29 23 15 15 24 c 60,-24 120,-49 180,-75 43,-31 86,-62 132,-93 26,-35 53,-70 82,-105 10,-34 20,-68 29,-104 7,-63 14,-126 23,-189 33,-44 66,-89 101,-136 49,-33 98,-66 146,-101 52,-27 104,-54 155,-83 42,-40 84,-80 128,-121 13,-48 25,-96 39,-144 -18,-46 -36,-91 -56,-139 -50,-35 -100,-70 -151,-106 z" />
        <path
   style="fill:#ed8383;fill-opacity:1;stroke:#ffcaca;stroke-opacity:1"
   inkscape:connector-curvature="0"
   id="path71"
   d="m 7089,6933 c -153,6 -306,12 -459,20 -145,-23 -290,-45 -436,-68 -131,-48 -262,-95 -394,-144 l -330,-207 c -81,-88 -162,-175 -245,-263 -45,-101 -89,-202 -137,-304 -4,-110 -8,-220 -15,-329 33,-102 67,-204 102,-308 68,-90 136,-180 206,-273 98,-74 197,-149 299,-226 127,-55 253,-110 380,-166 151,-31 301,-62 451,-94 152,-3 304,-6 456,-10 143,23 286,46 431,69 130,47 259,94 389,142 108,68 217,136 327,205 82,85 164,171 248,258 50,101 100,202 152,303 2,109 5,219 11,329 -35,102 -70,204 -108,306 -69,91 -139,181 -211,273 -100,75 -201,150 -302,226 -126,56 -251,111 -378,166 -144,31 -289,62 -437,95 z" />
       </g>
     <text
   xml:space="preserve"
   style="font-style:normal;font-variant:normal;font-weight:normal;font-stretch:normal;font-size:2116.66674805px;line-height:1.25;font-family:Western;-inkscape-font-specification:'Western, Normal';font-variant-ligatures:normal;font-variant-caps:normal;font-variant-numeric:normal;font-feature-settings:normal;text-align:start;letter-spacing:0px;word-spacing:0px;writing-mode:lr-tb;text-anchor:start;fill:#000000;fill-opacity:1;stroke:none;stroke-width:746.70708529;stroke-opacity:1;stroke-miterlimit:4;stroke-dasharray:none;"
   x="6721.4282"
   y="6465.4126"
   id="text4658"
   inkscape:export-xdpi="284.9028"
   inkscape:export-ydpi="284.9028"><tspan
     sodipodi:role="line"
     id="tspan4656"
     x="6721.4282"
     y="6465.4126"
     style="font-style:normal;font-variant:normal;font-weight:normal;font-stretch:normal;font-size:2116.66674805px;font-family:Western;-inkscape-font-specification:'Western, Normal';font-variant-ligatures:normal;font-variant-caps:normal;font-variant-numeric:normal;font-feature-settings:normal;text-align:start;writing-mode:lr-tb;text-anchor:start;stroke-width:746.70708529;stroke:none;stroke-opacity:1;stroke-miterlimit:4;stroke-dasharray:none;">B</tspan></text>
</g>
  </g>
 </g>
</svg>